<svg width="1200" height="1200" viewBox="0 0 1200 1200" fill="none" xmlns="http://www.w3.org/2000/svg">
  <rect width="1200" height="1200" rx="48" fill="#F8F4EE"/>
  <rect x="0" y="0" width="1200" height="1200" fill="url(#bg3)"/>
  <ellipse cx="600" cy="1088" rx="280" ry="146" fill="#E8E0D6"/>
  <path d="M332 1096C382 970 484 892 600 892C716 892 818 970 868 1096H332Z" fill="#EEE4DA"/>
  <path d="M262 394C286 228 417 94 600 94C783 94 914 228 938 394C903 324 842 271 768 241C694 212 601 202 507 225C420 247 336 306 262 394Z" fill="#2D231F"/>
  <path d="M254 431C281 275 405 126 561 112C423 170 332 290 305 476C286 610 295 731 330 829C248 728 232 556 254 431Z" fill="#3A2C26"/>
  <path d="M946 431C919 275 795 126 639 112C777 170 868 290 895 476C914 610 905 731 870 829C952 728 968 556 946 431Z" fill="#3A2C26"/>
  <path d="M320 510C320 279 442 146 600 146C758 146 880 279 880 510V690C880 908 758 1054 600 1054C442 1054 320 908 320 690V510Z" fill="url(#skin3)"/>
  <ellipse cx="602" cy="442" rx="192" ry="146" fill="url(#highlight3)" fill-opacity="0.34"/>
  <ellipse cx="432" cy="716" rx="64" ry="41" fill="#E5A395" fill-opacity="0.12"/>
  <ellipse cx="770" cy="714" rx="64" ry="41" fill="#E5A395" fill-opacity="0.12"/>
  <path d="M416 526C457 499 516 498 560 518" stroke="#4C352D" stroke-width="15" stroke-linecap="round"/>
  <path d="M640 518C684 498 743 499 784 526" stroke="#4C352D" stroke-width="15" stroke-linecap="round"/>
  <path d="M432 581C462 564 508 564 540 581" stroke="#745748" stroke-width="8.5" stroke-linecap="round"/>
  <path d="M660 581C692 564 738 564 768 581" stroke="#745748" stroke-width="8.5" stroke-linecap="round"/>
  <ellipse cx="486" cy="591" rx="47" ry="29" fill="#FFFDFB"/>
  <ellipse cx="714" cy="591" rx="47" ry="29" fill="#FFFDFB"/>
  <ellipse cx="487" cy="594" rx="18" ry="20" fill="#3D2C24"/>
  <ellipse cx="713" cy="594" rx="18" ry="20" fill="#3D2C24"/>
  <circle cx="493" cy="587" r="4.5" fill="#FFFFFF" fill-opacity="0.9"/>
  <circle cx="719" cy="587" r="4.5" fill="#FFFFFF" fill-opacity="0.9"/>
  <path d="M601 616C584 683 577 746 600 757C623 746 616 683 601 616Z" fill="#DFBC9F"/>
  <path d="M556 783C584 796 616 796 644 783" stroke="#C4857E" stroke-width="8.5" stroke-linecap="round"/>
  <path d="M492 832C559 867 641 867 708 832" stroke="#B06E6A" stroke-width="17" stroke-linecap="round"/>
  <circle cx="603" cy="763" r="5" fill="#F2D0B4" fill-opacity="0.92"/>
  <path d="M398 367C456 300 523 270 600 270C677 270 744 300 802 367" stroke="#3E2C26" stroke-width="22" stroke-linecap="round"/>
  <path d="M349 457C385 353 468 254 600 240C732 254 815 353 851 457" stroke="#2D231F" stroke-width="18" stroke-linecap="round"/>
  <ellipse cx="600" cy="462" rx="244" ry="174" fill="url(#glow3)" fill-opacity="0.3"/>
  <text x="600" y="1142" text-anchor="middle" fill="#7B6456" font-size="40" font-family="Arial">Demo Portrait Sequence - Visit 3</text>
  <defs>
    <linearGradient id="bg3" x1="106" y1="116" x2="1082" y2="1096" gradientUnits="userSpaceOnUse">
      <stop stop-color="#FFFAF6"/>
      <stop offset="1" stop-color="#F4EADF"/>
    </linearGradient>
    <radialGradient id="skin3" cx="0" cy="0" r="1" gradientUnits="userSpaceOnUse" gradientTransform="translate(596 436) rotate(90) scale(620 420)">
      <stop stop-color="#F7E1CA"/>
      <stop offset="1" stop-color="#ECCDB2"/>
    </radialGradient>
    <radialGradient id="highlight3" cx="0" cy="0" r="1" gradientUnits="userSpaceOnUse" gradientTransform="translate(608 418) rotate(90) scale(178 252)">
      <stop stop-color="#FFF4E2"/>
      <stop offset="1" stop-color="#FFF4E2" stop-opacity="0"/>
    </radialGradient>
    <radialGradient id="glow3" cx="0" cy="0" r="1" gradientUnits="userSpaceOnUse" gradientTransform="translate(600 462) rotate(90) scale(188 298)">
      <stop stop-color="#FFF2CE"/>
      <stop offset="1" stop-color="#FFF2CE" stop-opacity="0"/>
    </radialGradient>
  </defs>
</svg>
